<mxfile host="app.diagrams.net" agent="Mozilla/5.0 (X11; Linux x86_64; rv:144.0) Gecko/20100101 Firefox/144.0" version="28.2.8">
  <diagram name="Page-1" id="KrV62NsMxbxOYL2rbyKl">
    <mxGraphModel dx="288" dy="364" grid="1" gridSize="10" guides="1" tooltips="1" connect="1" arrows="1" fold="1" page="1" pageScale="1" pageWidth="827" pageHeight="1169" math="1" shadow="0">
      <root>
        <mxCell id="0" />
        <mxCell id="1" parent="0" />
        <mxCell id="lww8pKkZBnoZuNQDRzUZ-29" value="Nombre de spires" style="text;html=1;whiteSpace=wrap;strokeColor=none;fillColor=none;align=center;verticalAlign=middle;rounded=0;fontFamily=Helvetica;fontSize=11;fontColor=default;labelBackgroundColor=default;convertToSvg=1;" vertex="1" parent="1">
          <mxGeometry x="240" y="580" width="100" height="20" as="geometry" />
        </mxCell>
        <mxCell id="lww8pKkZBnoZuNQDRzUZ-39" value="$$N$$" style="text;html=1;whiteSpace=wrap;strokeColor=none;fillColor=none;align=center;verticalAlign=middle;rounded=0;fontFamily=Helvetica;fontSize=11;fontColor=default;labelBackgroundColor=default;convertToSvg=0;" vertex="1" parent="1">
          <mxGeometry x="330" y="580" width="30" height="20" as="geometry" />
        </mxCell>
        <mxCell id="lww8pKkZBnoZuNQDRzUZ-31" value="MatÃ©riau du noyau" style="text;html=1;whiteSpace=wrap;strokeColor=none;fillColor=none;align=center;verticalAlign=middle;rounded=0;fontFamily=Helvetica;fontSize=11;fontColor=default;labelBackgroundColor=default;convertToSvg=1;" vertex="1" parent="1">
          <mxGeometry x="140" y="570" width="60" height="30" as="geometry" />
        </mxCell>
        <mxCell id="lww8pKkZBnoZuNQDRzUZ-28" value="Aire" style="text;html=1;whiteSpace=wrap;strokeColor=none;fillColor=none;align=center;verticalAlign=middle;rounded=0;fontFamily=Helvetica;fontSize=11;fontColor=default;labelBackgroundColor=default;convertToSvg=1;" vertex="1" parent="1">
          <mxGeometry x="420" y="470" width="40" height="20" as="geometry" />
        </mxCell>
        <mxCell id="lww8pKkZBnoZuNQDRzUZ-38" value="$$A$$" style="text;html=1;whiteSpace=wrap;strokeColor=none;fillColor=none;align=center;verticalAlign=middle;rounded=0;fontFamily=Helvetica;fontSize=11;fontColor=default;labelBackgroundColor=default;convertToSvg=0;" vertex="1" parent="1">
          <mxGeometry x="450" y="470" width="20" height="20" as="geometry" />
        </mxCell>
        <mxCell id="lww8pKkZBnoZuNQDRzUZ-30" value="Longueur" style="text;html=1;strokeColor=none;fillColor=none;align=center;verticalAlign=middle;rounded=0;convertToSvg=1;whiteSpace=wrap;textDirection=ltr;labelPosition=center;verticalLabelPosition=middle;" vertex="1" parent="1">
          <mxGeometry x="260" y="440" width="60" height="20" as="geometry" />
        </mxCell>
        <mxCell id="lww8pKkZBnoZuNQDRzUZ-36" value="$$l$$" style="text;html=1;whiteSpace=wrap;strokeColor=none;fillColor=none;align=center;verticalAlign=middle;rounded=0;fontFamily=Helvetica;fontSize=11;fontColor=default;labelBackgroundColor=default;convertToSvg=0;" vertex="1" parent="1">
          <mxGeometry x="320" y="440" width="10" height="20" as="geometry" />
        </mxCell>
        <mxCell id="lww8pKkZBnoZuNQDRzUZ-37" style="edgeStyle=none;shape=connector;rounded=0;orthogonalLoop=1;jettySize=auto;html=1;exitX=1;exitY=1;exitDx=0;exitDy=0;strokeColor=default;align=center;verticalAlign=middle;fontFamily=Helvetica;fontSize=11;fontColor=default;labelBackgroundColor=default;endArrow=none;endFill=0;convertToSvg=1;" edge="1" parent="1" source="lww8pKkZBnoZuNQDRzUZ-36" target="lww8pKkZBnoZuNQDRzUZ-36">
          <mxGeometry relative="1" as="geometry" />
        </mxCell>
        <mxCell id="lww8pKkZBnoZuNQDRzUZ-1" value="" style="ellipse;whiteSpace=wrap;html=1;convertToSvg=1;" vertex="1" parent="1">
          <mxGeometry x="370" y="480" width="40" height="80" as="geometry" />
        </mxCell>
        <mxCell id="lww8pKkZBnoZuNQDRzUZ-3" value="" style="verticalLabelPosition=bottom;verticalAlign=top;html=1;shape=mxgraph.basic.arc;startAngle=0.5016239736686254;endAngle=0.9968173254495136;convertToSvg=1;" vertex="1" parent="1">
          <mxGeometry x="200" y="480" width="40" height="80" as="geometry" />
        </mxCell>
        <mxCell id="lww8pKkZBnoZuNQDRzUZ-4" value="" style="verticalLabelPosition=bottom;verticalAlign=top;html=1;shape=mxgraph.basic.arc;startAngle=0.7484085036175459;endAngle=0.9968173254495136;convertToSvg=1;" vertex="1" parent="1">
          <mxGeometry x="220" y="480" width="40" height="80" as="geometry" />
        </mxCell>
        <mxCell id="lww8pKkZBnoZuNQDRzUZ-5" value="" style="edgeStyle=none;orthogonalLoop=1;jettySize=auto;html=1;rounded=0;endArrow=none;endFill=0;entryX=0.5;entryY=0;entryDx=0;entryDy=0;exitX=0.485;exitY=0;exitDx=0;exitDy=0;exitPerimeter=0;convertToSvg=1;" edge="1" parent="1" source="lww8pKkZBnoZuNQDRzUZ-3" target="lww8pKkZBnoZuNQDRzUZ-1">
          <mxGeometry width="80" relative="1" as="geometry">
            <mxPoint x="220" y="479.72" as="sourcePoint" />
            <mxPoint x="300" y="479.72" as="targetPoint" />
            <Array as="points" />
          </mxGeometry>
        </mxCell>
        <mxCell id="lww8pKkZBnoZuNQDRzUZ-6" value="" style="edgeStyle=none;orthogonalLoop=1;jettySize=auto;html=1;rounded=0;endArrow=none;endFill=0;exitX=0.494;exitY=1;exitDx=0;exitDy=0;exitPerimeter=0;convertToSvg=1;" edge="1" parent="1" source="lww8pKkZBnoZuNQDRzUZ-3">
          <mxGeometry width="80" relative="1" as="geometry">
            <mxPoint x="220" y="559.98" as="sourcePoint" />
            <mxPoint x="390" y="560" as="targetPoint" />
            <Array as="points" />
          </mxGeometry>
        </mxCell>
        <mxCell id="lww8pKkZBnoZuNQDRzUZ-7" value="" style="verticalLabelPosition=bottom;verticalAlign=top;html=1;shape=mxgraph.basic.arc;startAngle=0.5016239736686254;endAngle=0.9968173254495136;convertToSvg=1;" vertex="1" parent="1">
          <mxGeometry x="240" y="480" width="40" height="80" as="geometry" />
        </mxCell>
        <mxCell id="lww8pKkZBnoZuNQDRzUZ-8" value="" style="verticalLabelPosition=bottom;verticalAlign=top;html=1;shape=mxgraph.basic.arc;startAngle=0.5016239736686254;endAngle=0.9968173254495136;convertToSvg=1;" vertex="1" parent="1">
          <mxGeometry x="250" y="480" width="40" height="80" as="geometry" />
        </mxCell>
        <mxCell id="lww8pKkZBnoZuNQDRzUZ-9" value="" style="verticalLabelPosition=bottom;verticalAlign=top;html=1;shape=mxgraph.basic.arc;startAngle=0.5016239736686254;endAngle=0.9968173254495136;convertToSvg=1;" vertex="1" parent="1">
          <mxGeometry x="260" y="480" width="40" height="80" as="geometry" />
        </mxCell>
        <mxCell id="lww8pKkZBnoZuNQDRzUZ-10" value="" style="verticalLabelPosition=bottom;verticalAlign=top;html=1;shape=mxgraph.basic.arc;startAngle=0.5016239736686254;endAngle=0.9968173254495136;convertToSvg=1;" vertex="1" parent="1">
          <mxGeometry x="270" y="480" width="40" height="80" as="geometry" />
        </mxCell>
        <mxCell id="lww8pKkZBnoZuNQDRzUZ-11" value="" style="verticalLabelPosition=bottom;verticalAlign=top;html=1;shape=mxgraph.basic.arc;startAngle=0.5016239736686254;endAngle=0.9968173254495136;convertToSvg=1;" vertex="1" parent="1">
          <mxGeometry x="280" y="480" width="40" height="80" as="geometry" />
        </mxCell>
        <mxCell id="lww8pKkZBnoZuNQDRzUZ-12" value="" style="verticalLabelPosition=bottom;verticalAlign=top;html=1;shape=mxgraph.basic.arc;startAngle=0.5016239736686254;endAngle=0.9968173254495136;convertToSvg=1;" vertex="1" parent="1">
          <mxGeometry x="300" y="480" width="40" height="80" as="geometry" />
        </mxCell>
        <mxCell id="lww8pKkZBnoZuNQDRzUZ-13" value="" style="verticalLabelPosition=bottom;verticalAlign=top;html=1;shape=mxgraph.basic.arc;startAngle=0.5016239736686254;endAngle=0.9968173254495136;convertToSvg=1;" vertex="1" parent="1">
          <mxGeometry x="290" y="480" width="40" height="80" as="geometry" />
        </mxCell>
        <mxCell id="lww8pKkZBnoZuNQDRzUZ-14" value="" style="verticalLabelPosition=bottom;verticalAlign=top;html=1;shape=mxgraph.basic.arc;startAngle=0.5016239736686254;endAngle=0.9968173254495136;convertToSvg=1;" vertex="1" parent="1">
          <mxGeometry x="310" y="480" width="40" height="80" as="geometry" />
        </mxCell>
        <mxCell id="lww8pKkZBnoZuNQDRzUZ-15" value="" style="verticalLabelPosition=bottom;verticalAlign=top;html=1;shape=mxgraph.basic.arc;startAngle=0.5016239736686254;endAngle=0.9968173254495136;convertToSvg=1;" vertex="1" parent="1">
          <mxGeometry x="320" y="480" width="40" height="80" as="geometry" />
        </mxCell>
        <mxCell id="lww8pKkZBnoZuNQDRzUZ-16" value="" style="verticalLabelPosition=bottom;verticalAlign=top;html=1;shape=mxgraph.basic.arc;startAngle=0.5016239736686254;endAngle=0.9968173254495136;convertToSvg=1;" vertex="1" parent="1">
          <mxGeometry x="330" y="480" width="40" height="80" as="geometry" />
        </mxCell>
        <mxCell id="lww8pKkZBnoZuNQDRzUZ-17" value="" style="verticalLabelPosition=bottom;verticalAlign=top;html=1;shape=mxgraph.basic.arc;startAngle=0.5016239736686254;endAngle=0.9968173254495136;convertToSvg=1;" vertex="1" parent="1">
          <mxGeometry x="340" y="480" width="40" height="80" as="geometry" />
        </mxCell>
        <mxCell id="lww8pKkZBnoZuNQDRzUZ-20" value="" style="verticalLabelPosition=bottom;verticalAlign=top;html=1;shape=mxgraph.basic.arc;startAngle=0.5016239736686254;endAngle=0.9968173254495136;convertToSvg=1;" vertex="1" parent="1">
          <mxGeometry x="230" y="480" width="40" height="80" as="geometry" />
        </mxCell>
        <mxCell id="lww8pKkZBnoZuNQDRzUZ-21" value="" style="verticalLabelPosition=bottom;verticalAlign=top;html=1;shape=mxgraph.basic.arc;startAngle=0.5016239736686254;endAngle=0.9968173254495136;convertToSvg=1;" vertex="1" parent="1">
          <mxGeometry x="350" y="480" width="40" height="80" as="geometry" />
        </mxCell>
        <mxCell id="lww8pKkZBnoZuNQDRzUZ-22" value="" style="edgeStyle=none;orthogonalLoop=1;jettySize=auto;html=1;rounded=0;strokeColor=default;align=center;verticalAlign=middle;fontFamily=Helvetica;fontSize=11;fontColor=default;labelBackgroundColor=default;endArrow=none;endFill=0;convertToSvg=1;" edge="1" parent="1">
          <mxGeometry width="80" relative="1" as="geometry">
            <mxPoint x="220" y="520" as="sourcePoint" />
            <mxPoint x="220" y="600" as="targetPoint" />
            <Array as="points" />
          </mxGeometry>
        </mxCell>
        <mxCell id="lww8pKkZBnoZuNQDRzUZ-23" value="" style="edgeStyle=none;orthogonalLoop=1;jettySize=auto;html=1;rounded=0;strokeColor=default;align=center;verticalAlign=middle;fontFamily=Helvetica;fontSize=11;fontColor=default;labelBackgroundColor=default;endArrow=none;endFill=0;convertToSvg=1;" edge="1" parent="1">
          <mxGeometry width="80" relative="1" as="geometry">
            <mxPoint x="375" y="560" as="sourcePoint" />
            <mxPoint x="375" y="600" as="targetPoint" />
            <Array as="points" />
          </mxGeometry>
        </mxCell>
        <mxCell id="lww8pKkZBnoZuNQDRzUZ-24" value="" style="edgeStyle=none;orthogonalLoop=1;jettySize=auto;html=1;rounded=0;strokeColor=default;align=center;verticalAlign=middle;fontFamily=Helvetica;fontSize=11;fontColor=default;labelBackgroundColor=default;endArrow=classic;endFill=1;startArrow=classic;startFill=1;convertToSvg=1;" edge="1" parent="1">
          <mxGeometry width="80" relative="1" as="geometry">
            <mxPoint x="220" y="460" as="sourcePoint" />
            <mxPoint x="390" y="460" as="targetPoint" />
            <Array as="points" />
          </mxGeometry>
        </mxCell>
        <mxCell id="lww8pKkZBnoZuNQDRzUZ-25" value="" style="edgeStyle=none;orthogonalLoop=1;jettySize=auto;html=1;rounded=0;strokeColor=default;align=center;verticalAlign=middle;fontFamily=Helvetica;fontSize=11;fontColor=default;labelBackgroundColor=default;endArrow=none;endFill=0;convertToSvg=1;" edge="1" parent="1">
          <mxGeometry width="80" relative="1" as="geometry">
            <mxPoint x="390" y="470" as="sourcePoint" />
            <mxPoint x="390" y="450" as="targetPoint" />
            <Array as="points" />
          </mxGeometry>
        </mxCell>
        <mxCell id="lww8pKkZBnoZuNQDRzUZ-26" value="" style="edgeStyle=none;orthogonalLoop=1;jettySize=auto;html=1;rounded=0;strokeColor=default;align=center;verticalAlign=middle;fontFamily=Helvetica;fontSize=11;fontColor=default;labelBackgroundColor=default;endArrow=none;endFill=0;convertToSvg=1;" edge="1" parent="1">
          <mxGeometry width="80" relative="1" as="geometry">
            <mxPoint x="220" y="470" as="sourcePoint" />
            <mxPoint x="220" y="450" as="targetPoint" />
            <Array as="points" />
          </mxGeometry>
        </mxCell>
        <mxCell id="lww8pKkZBnoZuNQDRzUZ-32" value="" style="curved=1;endArrow=classic;html=1;rounded=0;strokeColor=default;align=center;verticalAlign=middle;fontFamily=Helvetica;fontSize=11;fontColor=default;labelBackgroundColor=default;edgeStyle=none;convertToSvg=1;" edge="1" parent="1">
          <mxGeometry width="50" height="50" relative="1" as="geometry">
            <mxPoint x="180" y="570" as="sourcePoint" />
            <mxPoint x="200" y="540" as="targetPoint" />
            <Array as="points">
              <mxPoint x="180" y="550" />
            </Array>
          </mxGeometry>
        </mxCell>
        <mxCell id="lww8pKkZBnoZuNQDRzUZ-33" value="" style="curved=1;endArrow=classic;html=1;rounded=0;strokeColor=default;align=center;verticalAlign=middle;fontFamily=Helvetica;fontSize=11;fontColor=default;labelBackgroundColor=default;edgeStyle=none;convertToSvg=1;" edge="1" parent="1">
          <mxGeometry width="50" height="50" relative="1" as="geometry">
            <mxPoint x="424" y="482" as="sourcePoint" />
            <mxPoint x="394" y="502" as="targetPoint" />
            <Array as="points">
              <mxPoint x="404" y="482" />
            </Array>
          </mxGeometry>
        </mxCell>
      </root>
    </mxGraphModel>
  </diagram>
</mxfile>
